<?xml version="1.0" standalone="no"?>
<!DOCTYPE svg PUBLIC "-//W3C//DTD SVG 20010904//EN"
 "http://www.w3.org/TR/2001/REC-SVG-20010904/DTD/svg10.dtd">
<svg version="1.0" xmlns="http://www.w3.org/2000/svg"
 width="1024.000000pt" height="1024.000000pt" viewBox="0 0 1024.000000 1024.000000"
 preserveAspectRatio="xMidYMid meet">

<g transform="translate(0.000000,1024.000000) scale(0.100000,-0.100000)"
fill="#000000" stroke="none">
<path d="M4904 8729 c-179 -69 -354 -392 -354 -655 l0 -83 -77 55 c-141 101
-237 134 -394 134 -59 0 -115 -3 -124 -6 -8 -4 -23 -20 -31 -36 -12 -24 -13
-33 -2 -56 13 -27 14 -27 145 -33 126 -5 134 -7 206 -42 90 -45 207 -138 225
-180 7 -16 22 -89 33 -161 l19 -131 47 -42 c108 -98 -16 -15 -187 126 -72 58
-100 73 -100 51 0 -5 -8 -10 -17 -11 -16 0 -16 -1 -1 -7 15 -6 15 -9 -2 -30
-10 -12 -20 -17 -22 -11 -5 15 -94 -27 -102 -48 -4 -9 -1 -22 5 -29 9 -11 8
-14 -1 -14 -8 0 -11 -3 -8 -6 3 -3 54 0 112 7 72 8 110 9 117 2 7 -7 -28 -16
-107 -29 -83 -13 -122 -24 -133 -36 -14 -16 -16 -16 -36 5 -51 52 -113 167
-134 245 -10 34 -16 41 -39 44 -24 3 -36 21 -116 181 -57 114 -90 193 -94 222
-4 41 -1 48 31 80 l35 35 185 0 c162 0 187 2 205 18 34 29 37 58 8 87 -25 25
-27 25 -199 25 -197 0 -255 -12 -313 -62 -72 -64 -98 -156 -69 -254 29 -100
196 -421 337 -647 27 -43 48 -82 46 -87 -2 -4 -20 -27 -41 -50 -39 -42 -39
-42 -60 -23 -12 11 -34 27 -48 35 -15 9 -44 52 -68 97 -75 145 -179 221 -301
221 -41 0 -50 3 -50 18 0 9 7 127 15 262 30 500 30 512 7 540 -19 24 -26 25
-163 30 l-142 5 -13 40 c-7 22 -15 52 -18 67 -3 15 -17 40 -30 55 -24 27 -24
27 -82 15 -78 -16 -109 -39 -109 -83 0 -35 14 -47 80 -66 28 -8 31 -13 71
-168 22 -88 64 -250 93 -360 72 -275 112 -437 109 -440 -2 -1 -25 -9 -52 -18
-48 -17 -50 -16 -65 5 -9 12 -133 197 -276 412 -239 359 -262 391 -290 394
-24 2 -54 -14 -145 -78 -134 -94 -150 -111 -150 -157 0 -27 10 -45 48 -85 60
-65 471 -433 579 -517 l81 -65 -25 -30 c-14 -17 -32 -46 -40 -64 l-14 -33 -82
87 c-45 48 -89 99 -98 113 -45 71 -117 111 -202 111 -63 0 -65 2 -127 110 -24
41 -57 90 -74 108 -46 49 -71 44 -193 -37 -95 -63 -95 -72 2 -219 l74 -112
-19 -43 c-24 -51 -26 -172 -5 -231 17 -47 104 -192 323 -536 l169 -265 -298
-5 c-294 -5 -299 -6 -321 -28 l-23 -23 0 -1657 c0 -1364 2 -1667 14 -1712 7
-30 33 -98 58 -150 38 -83 55 -105 134 -182 l89 -88 -58 0 c-45 0 -66 -5 -86
-21 -31 -24 -35 -68 -8 -92 17 -16 235 -17 2934 -17 2763 0 2917 1 2936 17 31
27 35 57 13 84 -17 22 -29 24 -122 29 l-103 5 43 29 c54 38 143 134 177 193
77 130 104 264 104 510 0 218 -7 242 -72 243 -16 0 -37 -9 -48 -20 -19 -19
-20 -32 -18 -228 1 -143 -2 -224 -11 -262 -50 -208 -214 -378 -421 -437 -62
-17 -168 -18 -2510 -18 -2683 0 -2482 -5 -2610 61 -131 68 -215 165 -273 317
l-32 82 -3 482 -3 483 98 -6 c133 -7 175 -11 198 -19 17 -6 18 -5 5 5 -13 10
-12 11 5 5 35 -12 50 -12 57 -1 4 6 8 -57 8 -140 0 -113 -5 -175 -20 -245 -11
-52 -20 -123 -20 -159 0 -219 155 -434 363 -503 61 -20 77 -20 945 -18 848 3
884 2 904 -15 20 -17 21 -18 15 -1 -6 16 -5 16 21 0 15 -10 30 -22 34 -28 5
-6 8 -4 8 5 0 10 3 11 11 3 6 -6 18 -9 25 -6 8 3 14 0 14 -7 0 -7 7 -10 16 -6
15 6 15 4 3 -11 -8 -9 -9 -14 -2 -10 6 4 14 3 18 -3 4 -6 11 -8 16 -4 5 3 17
0 26 -8 14 -11 16 -11 8 1 -6 10 -4 12 4 7 7 -5 10 -13 8 -20 -5 -13 51 -15
72 -2 11 7 13 5 8 -7 -3 -10 -2 -17 4 -17 6 0 7 -6 3 -12 -4 -7 3 -4 16 7 22
19 23 19 16 1 -5 -16 -4 -17 9 -6 12 10 15 10 15 -1 0 -12 2 -12 9 0 7 11 9
11 13 0 3 -8 24 -13 57 -15 32 -1 57 -7 62 -15 6 -10 9 -11 9 -2 0 13 26 13
47 0 6 -4 14 -3 18 3 3 5 15 10 26 10 14 0 18 -4 13 -12 -5 -9 -3 -9 9 1 9 7
26 11 37 8 11 -3 27 1 35 10 8 8 15 10 15 5 0 -6 11 -9 25 -8 16 0 23 6 20 14
-3 9 0 10 12 4 18 -11 55 -4 65 12 5 7 8 7 8 -2 0 -10 3 -10 15 2 9 8 26 13
40 10 14 -2 25 0 25 6 0 6 4 9 9 5 5 -3 12 -1 16 4 3 6 12 8 20 4 8 -3 15 0
15 7 0 7 8 10 20 7 12 -3 18 -1 14 5 -5 7 2 9 18 6 21 -4 24 -1 20 14 -3 12 1
18 12 19 9 1 21 3 26 4 6 1 22 3 36 4 14 0 23 5 20 10 -3 5 1 12 10 15 9 3
181 6 383 6 l368 0 24 -26 c13 -14 51 -44 84 -66 33 -23 62 -44 65 -48 7 -10
90 -7 90 2 0 5 5 8 11 8 5 0 7 -4 4 -10 -3 -5 -2 -10 4 -10 5 0 11 4 13 9 6
16 76 20 82 5 3 -8 11 -14 18 -14 10 0 10 3 -1 9 -9 6 2 9 32 8 25 0 44 -4 41
-9 -6 -9 59 -4 87 7 10 3 20 2 24 -4 3 -6 11 -11 16 -11 6 0 7 5 3 11 -4 7 2
7 17 -1 19 -11 24 -10 36 6 7 10 13 13 13 6 0 -14 49 -13 68 1 8 6 12 5 12 -4
1 -10 5 -8 15 5 8 11 22 17 33 14 12 -3 25 2 33 13 10 14 15 15 21 6 6 -9 8
-9 8 1 0 6 6 12 13 12 7 0 19 6 25 12 7 7 17 13 22 13 11 0 59 53 53 59 -2 2
1 14 7 26 10 18 14 19 28 8 9 -8 13 -8 9 -1 -10 16 3 44 17 36 6 -3 3 2 -6 13
-17 19 -17 21 0 38 12 13 13 16 2 10 -12 -6 -13 -5 -5 7 6 8 10 25 10 39 0 14
5 28 10 32 6 5 3 8 -7 8 -9 0 -19 -6 -21 -12 -3 -7 -3 5 -1 26 2 22 0 43 -6
46 -6 4 -12 16 -13 28 -1 13 -10 23 -24 27 -22 5 -22 6 16 44 21 21 45 59 55
86 33 100 12 181 -68 258 -39 37 -46 49 -46 82 0 90 -81 184 -182 212 -54 15
-59 19 -83 69 -29 60 -77 104 -147 137 -27 12 -48 26 -48 30 0 5 6 5 13 2 6
-4 4 0 -6 8 -16 13 -16 15 -1 21 23 9 26 8 19 -6 -4 -7 -1 -6 7 2 7 9 36 32
64 53 135 98 209 255 251 534 16 109 16 116 0 128 -19 14 -64 8 -182 -24 -139
-38 -318 -129 -364 -185 -7 -9 -18 -13 -24 -9 -5 3 -7 1 -3 -5 3 -6 2 -13 -2
-16 -5 -3 -12 70 -15 162 -4 92 -9 179 -13 193 l-6 26 189 5 c166 5 197 9 268
32 44 14 100 39 125 56 53 35 83 37 130 9 56 -34 81 -61 106 -114 24 -50 24
-52 24 -423 0 -409 -1 -416 -59 -465 -27 -22 -42 -27 -86 -27 -46 0 -56 -4
-74 -26 -27 -35 -26 -49 5 -81 23 -23 31 -25 83 -20 79 7 155 42 197 91 63 73
65 96 62 543 l-3 398 -28 61 c-35 75 -111 153 -189 192 -44 22 -54 31 -47 43
15 23 12 27 -53 58 -132 62 -304 101 -449 101 -76 0 -207 -31 -257 -60 -19
-12 -35 -20 -37 -18 -1 2 -24 50 -53 108 -97 200 -195 343 -330 482 -111 114
-109 118 45 118 l118 0 17 -48 c24 -66 78 -126 146 -159 48 -24 69 -28 137
-28 90 0 145 20 215 76 53 43 124 149 151 224 44 122 33 267 -25 339 -89 112
-486 -28 -606 -213 l-33 -51 -106 0 -106 1 44 39 c45 42 134 112 591 468 506
395 560 444 610 542 111 219 21 489 -198 593 -63 30 -74 32 -177 32 -102 0
-114 -2 -175 -31 -78 -38 -279 -180 -699 -497 -244 -184 -317 -234 -327 -226
-8 6 -11 16 -7 23 15 23 -8 102 -27 91 -5 -3 12 28 37 70 85 143 178 417 205
607 10 67 9 80 -6 102 l-16 26 -173 0 c-201 0 -220 -6 -215 -68 4 -48 30 -61
136 -63 45 -1 85 -6 88 -11 3 -5 -7 -19 -23 -30 -15 -12 -46 -41 -69 -63 -23
-23 -48 -44 -56 -48 -11 -3 -14 -14 -11 -31 3 -16 1 -26 -6 -26 -7 0 -9 -5 -5
-12 4 -7 3 -8 -5 -4 -6 4 -9 18 -7 32 l5 24 -29 -20 c-19 -14 -27 -26 -23 -39
4 -14 -10 -35 -49 -74 l-55 -54 96 -12 c121 -16 151 -22 151 -30 0 -9 -254 15
-308 28 -54 14 -70 6 -199 -97 -95 -76 -99 -78 -145 -74 l-46 4 15 44 c12 35
24 49 53 64 107 55 169 112 203 189 28 64 47 206 42 324 -11 279 -173 589
-356 681 -67 33 -167 35 -245 5z m157 -119 c47 -13 109 -68 150 -132 18 -29
36 -55 39 -58 25 -21 46 -132 23 -123 -6 3 -16 -5 -22 -16 -14 -26 -14 -40 0
-21 9 12 10 12 5 -3 -3 -10 -6 -23 -6 -29 0 -6 -6 -6 -15 2 -8 7 -15 10 -15 7
0 -3 -3 -13 -7 -23 -5 -13 -3 -15 7 -9 9 5 11 4 6 -4 -6 -9 -11 -9 -22 0 -9 7
-14 8 -13 3 1 -5 0 -12 -1 -16 -4 -13 -7 -28 -9 -40 -1 -8 -6 -6 -12 5 -16 27
-39 21 -40 -10 0 -25 -1 -26 -9 -8 l-9 20 -1 -20 c-1 -18 -2 -18 -12 -3 -11
15 -13 14 -25 -9 -7 -14 -10 -30 -6 -36 4 -6 -2 -8 -15 -5 -22 6 -22 4 -22
-105 l0 -111 63 60 c132 128 257 236 257 222 0 -8 -33 -44 -72 -81 -40 -36
-112 -104 -161 -149 l-87 -83 -7 -90 c-8 -98 -20 -82 -22 30 -1 60 -1 61 -62
120 -34 33 -56 50 -50 38 7 -15 8 -24 1 -28 -6 -4 -8 -10 -5 -15 3 -4 -8 -20
-25 -33 -16 -14 -30 -33 -30 -41 0 -25 -28 -19 -57 12 -39 42 -62 94 -75 171
-37 218 108 551 264 608 42 15 55 15 99 3z m-1771 -276 l35 -6 -6 -96 c-4 -54
-7 -115 -8 -136 -1 -40 -14 -41 -24 -1 -3 11 -5 -15 -4 -58 3 -98 -3 -81 -43
113 -17 85 -34 163 -37 173 -5 19 20 22 87 11z m-669 -289 c77 -119 90 -143
67 -129 -7 4 -8 3 -4 -5 4 -6 12 -9 17 -6 5 4 9 1 9 -4 0 -17 2 -24 11 -49 13
-34 -2 -23 -161 122 l-141 129 47 34 c27 18 55 32 63 31 8 -2 49 -57 92 -123z
m4618 -271 c34 -10 69 -30 95 -54 l41 -39 -28 -1 c-41 0 -85 -22 -152 -77
-103 -84 -320 -250 -605 -466 -151 -114 -312 -235 -356 -270 -45 -34 -110 -83
-145 -108 -35 -25 -116 -84 -179 -131 -216 -159 -171 -113 93 94 177 138 208
167 135 124 -49 -29 -66 -33 -49 -13 8 10 7 14 -4 14 -8 0 -15 -4 -15 -8 0 -4
-8 -7 -19 -6 -14 1 -18 8 -17 28 1 15 -1 26 -6 23 -13 -9 -49 16 -41 29 4 6
-22 -9 -57 -34 -147 -104 -203 -141 -188 -124 4 4 3 14 -3 21 -7 8 -7 14 1 19
6 3 8 10 5 14 -6 10 16 27 500 388 756 564 723 540 794 570 66 27 127 29 200
7z m-1457 -16 c-7 -7 -12 -21 -13 -32 0 -21 0 -21 -9 -1 -5 14 -3 24 8 33 20
15 30 16 14 0z m-3511 -109 c22 -33 39 -65 37 -70 -4 -11 -82 94 -95 127 -12
32 16 5 58 -57z m2697 -148 c4 -106 1 -113 -32 -98 -25 12 -26 15 -26 100 l0
88 28 -3 c27 -3 27 -4 30 -87z m-2368 -76 l44 -45 -49 -50 c-27 -27 -46 -52
-43 -55 3 -4 30 14 60 38 l55 45 64 -86 c35 -47 66 -90 67 -94 2 -4 -22 -36
-53 -70 -31 -35 -52 -64 -46 -66 6 -2 39 20 73 48 l63 51 15 -23 c8 -12 40
-56 70 -98 31 -41 59 -80 63 -87 5 -7 -16 -37 -50 -75 -111 -120 -107 -131 12
-37 l78 62 18 -24 c10 -13 15 -26 13 -29 -3 -2 -9 2 -14 10 -9 14 -11 13 -14
-9 0 -5 -5 -13 -10 -18 -5 -5 -6 -2 -1 7 7 12 6 13 -6 2 -12 -11 -12 -14 1
-22 10 -7 11 -13 4 -17 -5 -5 -9 -28 -9 -53 1 -25 0 -40 -2 -33 -3 8 -10 7
-22 -5 -9 -9 -13 -20 -9 -23 11 -7 -1 -41 -12 -34 -5 3 -6 -5 -2 -17 3 -14 2
-19 -6 -14 -7 4 -12 14 -12 22 0 22 -9 18 -90 -36 -53 -35 -76 -46 -82 -37 -4
7 -12 12 -17 12 -16 0 -215 301 -236 356 -4 11 14 35 57 77 34 33 60 63 56 67
-3 3 -38 -17 -77 -46 -39 -28 -73 -50 -75 -48 -1 2 -29 46 -61 97 l-58 92 62
56 c34 31 59 59 56 62 -3 3 -32 -13 -65 -36 -32 -23 -64 -42 -70 -42 -14 0
-40 62 -40 97 0 40 38 110 74 137 46 34 85 46 136 41 37 -4 53 -14 90 -50z
m947 36 c38 -18 103 -89 103 -113 0 -5 -30 -36 -66 -70 -79 -74 -68 -89 17
-23 33 26 63 44 67 41 3 -4 -7 -17 -23 -30 -28 -23 -29 -24 -16 -66 7 -23 15
-49 18 -58 4 -9 2 -13 -4 -9 -13 8 -130 -17 -176 -39 -25 -12 -41 -28 -49 -51
-7 -18 -19 -33 -28 -33 -13 0 -13 -1 0 -10 9 -6 10 -10 3 -10 -6 0 -14 4 -18
9 -3 6 -17 6 -35 1 -24 -7 -30 -6 -30 7 0 13 -2 13 -17 2 -13 -11 -17 -11 -21
-1 -3 10 -7 10 -20 0 -13 -11 -14 -11 -8 0 5 9 1 15 -13 19 -12 3 -21 10 -21
15 0 6 -7 8 -15 5 -8 -4 -17 -2 -20 4 -4 5 -12 7 -18 3 -7 -3 15 20 47 50 33
31 57 58 55 61 -3 2 -29 -7 -58 -20 -29 -14 -58 -25 -64 -25 -19 0 -97 90 -97
113 0 53 35 84 172 153 73 37 149 73 168 80 51 18 119 16 167 -5z m2087 -51
c66 -11 122 -23 125 -25 11 -12 -10 -12 -104 1 -55 7 -120 13 -144 14 -37 0
-42 2 -31 15 16 19 11 19 154 -5z m-774 -150 c68 -36 130 -33 204 10 l59 33
56 -14 c50 -13 56 -17 53 -39 -1 -13 -8 -28 -15 -32 -6 -4 -9 -8 -4 -8 4 0 0
-11 -9 -25 -10 -15 -12 -25 -5 -25 6 0 11 -4 11 -10 0 -6 -6 -9 -12 -7 -8 1
-13 -9 -13 -24 0 -29 -25 -65 -34 -50 -4 6 -13 0 -20 -12 -13 -20 -13 -21 1
-9 14 11 16 9 14 -13 -1 -17 -6 -23 -15 -20 -9 3 -11 0 -7 -10 3 -8 -4 -24
-17 -36 -12 -12 -16 -19 -10 -15 9 5 11 2 7 -8 -3 -9 -10 -14 -14 -11 -4 3
-11 -2 -14 -11 -4 -10 -2 -13 7 -9 6 4 3 -1 -8 -10 -11 -9 -19 -22 -17 -29 1
-7 -9 -18 -23 -24 -14 -6 -25 -18 -25 -27 0 -8 -4 -15 -10 -15 -5 0 -10 -7
-10 -15 0 -8 -7 -15 -15 -15 -8 0 -15 -3 -15 -8 0 -4 -9 -13 -21 -20 -15 -10
-19 -10 -14 -1 5 8 4 10 -3 5 -7 -4 -12 -13 -12 -21 0 -7 -9 -16 -19 -20 -11
-3 -22 -12 -25 -20 -3 -8 -10 -15 -16 -15 -6 0 -8 5 -4 12 4 7 3 8 -5 4 -6 -4
-9 -11 -6 -16 7 -11 -21 -21 -40 -14 -8 4 -15 1 -15 -6 0 -6 6 -8 13 -5 6 4 3
-1 -8 -9 -11 -9 -25 -14 -32 -12 -7 3 -15 0 -19 -6 -4 -7 -3 -8 4 -4 7 4 12 5
12 2 0 -14 -20 -14 -34 0 -15 14 -16 14 -16 -1 0 -11 -5 -15 -15 -11 -8 3 -15
1 -15 -4 0 -6 -5 -10 -11 -10 -5 0 -7 6 -4 13 4 6 0 4 -8 -5 -8 -10 -17 -15
-20 -11 -4 3 -7 2 -7 -3 0 -5 -14 -10 -32 -11 -17 -1 -34 -7 -38 -13 -12 -19
-90 69 -122 135 -75 161 -55 348 51 476 38 46 134 97 202 107 69 10 122 2 179
-28z m-830 -111 c-17 -44 -30 -83 -30 -85 0 -3 -4 -2 -10 1 -13 8 -13 61 1 88
11 20 59 77 66 77 1 0 -11 -36 -27 -81z m252 4 c-15 -21 -23 -23 -66 -19 -27
3 -50 7 -52 9 -2 2 3 22 12 45 l16 41 53 -26 c53 -26 53 -27 37 -50z m-454 25
c38 -42 56 -118 27 -118 -8 0 -15 5 -15 11 0 5 -4 8 -8 5 -12 -7 -62 74 -62
101 0 30 30 30 58 1z m-88 -186 c21 -17 20 -17 -57 -11 -93 9 -83 7 -83 19 0
18 116 12 140 -8z m491 -3 c-2 -8 -4 -52 -4 -99 0 -74 6 -113 30 -194 3 -10 1
-16 -3 -13 -5 3 -10 -9 -11 -26 -2 -18 -7 -33 -13 -35 -5 -2 -10 -10 -10 -18
0 -7 -9 -19 -20 -26 -11 -7 -20 -16 -20 -21 0 -4 5 -5 11 -1 8 4 7 0 -1 -15
-6 -12 -15 -19 -20 -16 -5 3 -14 -3 -19 -14 -6 -11 -24 -22 -41 -26 -16 -4
-33 -11 -36 -17 -5 -7 -2 -8 6 -3 9 5 11 4 6 -3 -4 -7 -18 -12 -31 -12 -13 0
-28 -7 -33 -16 -5 -9 -20 -17 -34 -17 -15 -1 -24 -5 -21 -9 2 -5 -1 -8 -7 -8
-6 0 -9 -4 -6 -8 8 -13 -12 -13 -241 -6 l-162 5 -8 37 c-25 117 0 221 73 302
59 65 110 84 218 82 110 -2 142 12 192 79 45 62 89 96 140 108 49 12 70 9 65
-10z m1749 -99 c0 -5 -5 -10 -11 -10 -5 0 -7 5 -4 10 3 6 8 10 11 10 2 0 4 -4
4 -10z m33 -43 c-3 -5 -9 -3 -14 4 -4 7 -5 17 -2 22 3 5 9 3 14 -4 4 -7 5 -17
2 -22z m-3006 -173 c-3 -3 -12 -4 -19 -1 -8 3 -5 6 6 6 11 1 17 -2 13 -5z
m-67 -79 c0 -8 -7 -15 -15 -15 -8 0 -15 -5 -15 -11 0 -5 -5 -7 -11 -4 -7 5 -4
14 7 26 21 23 34 24 34 4z m4100 -194 c13 -26 13 -114 -2 -162 -15 -52 -79
-118 -120 -126 -18 -3 -47 -14 -64 -24 -16 -10 -39 -16 -50 -13 -12 3 -44 1
-72 -4 -46 -8 -53 -7 -72 13 -11 12 -20 24 -20 27 0 3 33 8 73 10 87 6 137 29
194 90 37 41 91 154 78 166 -3 3 -6 3 -8 1 -72 -106 -130 -139 -240 -139 -42
0 -77 4 -77 9 0 18 94 92 157 123 43 21 87 34 131 38 37 4 70 8 74 9 4 0 12
-8 18 -18z m-2052 -87 l-3 -97 -55 -14 c-104 -26 -215 -115 -255 -204 l-19
-40 -190 3 c-234 4 -243 7 -288 105 l-30 66 29 23 c15 12 64 43 108 68 192
107 453 182 643 185 l63 1 -3 -96z m340 70 c213 -38 464 -148 664 -291 95 -68
290 -251 286 -268 -2 -7 -74 -86 -161 -175 l-157 -162 -70 22 c-139 45 -297
12 -417 -86 -223 -183 -187 -557 68 -707 126 -74 312 -74 439 0 100 59 184
177 198 280 l7 48 237 3 237 2 8 -37 c4 -21 8 -128 7 -238 0 -270 -25 -408
-120 -664 -37 -98 -128 -272 -167 -317 l-22 -25 -75 78 c-92 96 -129 139 -112
129 6 -4 12 -3 12 3 0 5 -6 12 -12 15 -7 3 -2 3 12 -1 22 -5 23 -4 12 10 -9
10 -10 17 -2 22 5 3 10 12 10 18 0 7 -4 6 -10 -3 -5 -8 -12 -12 -15 -8 -4 3 6
17 21 32 25 23 26 26 10 32 -18 7 -18 8 0 22 18 13 17 14 -8 10 -15 -3 -25 -1
-22 3 3 5 17 9 32 9 20 0 23 3 13 9 -12 8 -12 12 -2 25 8 10 9 16 3 16 -6 0
-14 -9 -17 -21 -4 -11 -9 -18 -11 -16 -9 9 19 56 29 50 6 -4 8 0 5 8 -3 9 5
39 19 69 13 29 36 100 50 156 26 101 26 104 8 124 -44 48 -95 10 -120 -90 -17
-69 -93 -233 -145 -314 l-31 -48 -26 23 c-14 13 -43 45 -65 71 -36 44 -38 50
-29 83 21 76 -25 144 -103 152 -53 6 -86 -11 -116 -60 -41 -66 -12 -143 70
-185 25 -12 80 -57 122 -99 l78 -77 -23 -24 c-12 -13 -43 -39 -68 -57 -40 -30
-45 -38 -42 -67 4 -39 -29 -101 -68 -131 -41 -30 -110 -34 -152 -8 -52 32 -93
28 -131 -14 -39 -42 -95 -68 -212 -97 -75 -19 -116 -23 -264 -23 -157 0 -186
3 -281 27 -188 48 -362 134 -494 245 -62 53 -185 187 -185 202 0 4 27 30 59
59 l59 52 36 -15 c45 -19 87 -19 133 0 73 31 113 92 113 173 0 125 -144 222
-248 168 -67 -35 -122 -125 -122 -201 0 -26 -10 -41 -49 -78 -26 -25 -73 -58
-102 -74 l-54 -28 -308 -3 -309 -3 4 -140 c1 -76 2 -139 0 -139 -1 0 -14 7
-27 16 -16 10 -36 14 -53 11 l-29 -6 5 130 5 129 -476 0 c-419 0 -477 2 -491
16 -14 14 -16 123 -16 1054 0 1017 0 1040 19 1050 13 7 290 10 828 10 l809 0
55 -27 c77 -38 169 -134 192 -201 21 -63 65 -115 121 -145 39 -21 56 -22 299
-25 207 -3 258 -1 261 10 33 112 67 159 148 203 44 24 68 30 139 33 78 4 92 2
148 -23 76 -34 143 -105 166 -175 l17 -50 159 0 c135 0 161 -2 166 -15 3 -9
23 -25 45 -36 129 -66 250 97 148 200 -52 51 -131 48 -185 -9 -29 -30 -29 -30
-140 -30 l-112 0 -12 28 c-42 92 -138 172 -249 208 l-67 21 -3 97 -3 98 68 -7
c37 -3 105 -13 151 -21z m1089 -726 c64 -99 133 -240 182 -375 23 -62 41 -115
41 -118 0 -3 -101 -5 -224 -5 l-224 0 -12 38 c-20 60 -57 130 -95 176 l-34 42
152 156 c84 85 155 156 160 157 4 0 29 -32 54 -71z m-553 -258 c74 -28 147
-99 182 -175 72 -157 4 -345 -154 -422 -117 -57 -267 -30 -360 67 -59 60 -86
122 -90 205 -2 39 1 89 7 111 16 61 66 128 125 169 96 66 193 81 290 45z
m1330 -75 c44 -8 84 -19 89 -24 5 -5 -20 -15 -58 -25 -55 -14 -80 -15 -153 -6
-60 8 -95 8 -112 1 -21 -9 -16 -10 25 -7 28 3 44 2 37 -1 -6 -2 -9 -10 -5 -16
4 -6 0 -8 -9 -5 -8 4 -21 2 -29 -2 -11 -8 -11 -10 1 -14 8 -2 22 -7 30 -9 8
-3 -4 -6 -27 -6 -23 -1 -52 -5 -65 -10 -14 -5 -49 -12 -79 -16 l-54 -7 -11 41
c-10 36 -9 42 10 59 78 72 208 86 410 47z m-29 -614 c-41 -40 -151 -119 -153
-110 -3 6 -9 6 -18 -2 -8 -7 -14 -7 -14 -1 0 14 56 54 125 90 65 33 74 37 60
23z m85 -103 c-33 -108 -67 -170 -91 -166 -11 2 -19 7 -19 12 1 5 -10 16 -24
25 -20 13 -23 20 -14 29 15 15 3 16 -23 2 -12 -7 -19 -7 -19 -1 0 12 201 184
207 177 3 -3 -5 -38 -17 -78z m-2955 -223 c14 -13 25 -31 25 -39 0 -30 -23
-65 -51 -77 -24 -9 -33 -9 -54 5 -15 10 -29 24 -32 32 -14 38 28 104 67 104
12 0 32 -11 45 -25z m2802 -391 c40 -25 69 -104 58 -155 -6 -25 -9 -28 -27
-18 -11 6 -25 8 -32 6 -7 -3 -23 1 -37 9 -32 18 -64 17 -78 0 -10 -12 -7 -18
14 -32 14 -9 33 -30 41 -45 17 -33 19 -102 3 -130 -14 -27 -46 -59 -59 -59 -5
0 -10 -3 -10 -7 0 -5 -11 -13 -24 -19 -19 -9 -23 -9 -20 1 3 6 -2 12 -11 12
-8 0 -15 -5 -15 -11 0 -6 -21 -11 -50 -11 -36 0 -50 4 -50 14 0 8 -2 12 -5 9
-6 -5 -35 -221 -31 -225 5 -5 222 185 259 226 47 52 81 71 127 71 45 0 78 -23
96 -67 16 -37 10 -58 -31 -103 -13 -14 -26 -34 -29 -45 -3 -11 -4 -5 -2 13 3
33 -10 44 -20 17 -7 -18 -35 -20 -53 -2 -11 10 -13 10 -7 0 10 -18 -9 -16 -27
1 -13 13 -17 12 -36 -8 -13 -13 -19 -26 -14 -28 4 -3 2 -3 -5 -1 -8 2 -55 -32
-105 -75 -104 -89 -294 -232 -308 -232 -5 0 -30 23 -56 50 l-48 50 79 81 c108
112 128 158 136 314 7 135 18 165 77 214 22 19 31 31 22 31 -32 0 -102 -74
-131 -137 -20 -46 -34 -63 -47 -63 -27 0 -37 72 -21 142 24 99 107 158 224
158 40 0 55 5 77 26 52 50 123 61 176 28z m-3098 -86 c205 -217 461 -365 715
-413 46 -9 126 -20 177 -25 119 -11 163 -19 167 -31 2 -5 9 -6 15 -2 18 11
117 11 110 -1 -4 -5 1 -7 10 -3 9 3 17 2 19 -3 2 -5 22 -11 46 -14 37 -3 43
-2 38 13 -4 11 -2 10 9 -4 14 -17 17 -18 25 -5 6 9 10 10 10 3 0 -7 11 -10 33
-7 17 3 46 7 62 9 17 1 34 3 38 4 5 0 5 5 2 11 -3 6 1 7 9 4 9 -3 16 -10 16
-15 0 -5 4 -9 10 -9 5 0 7 8 4 18 -5 14 -3 14 10 -2 14 -17 16 -17 16 -3 0 10
7 15 19 12 11 -2 22 3 25 11 3 8 10 14 17 14 6 0 9 -7 6 -14 -4 -10 -1 -13 9
-9 7 3 14 11 14 19 0 15 21 15 32 -1 5 -6 8 -3 8 6 0 9 7 19 15 23 8 3 15 1
15 -5 0 -6 5 -7 10 -4 6 4 8 11 5 16 -12 18 5 29 27 18 16 -9 19 -8 13 2 -6 8
-4 11 7 6 10 -3 20 3 28 18 15 27 43 38 60 21 8 -8 10 -7 5 7 -4 9 -3 17 3 17
5 0 17 16 26 35 14 30 20 34 36 25 15 -8 17 -7 13 10 -3 11 0 20 6 20 6 0 10
3 10 8 -3 19 3 29 31 45 18 11 27 23 23 32 -3 9 1 15 8 15 10 0 10 3 1 12 -7
7 -12 17 -12 22 0 6 5 5 12 -2 17 -17 33 -15 19 2 -8 10 -9 16 -1 21 6 3 7 12
3 18 -4 7 2 5 12 -3 10 -8 16 -10 12 -4 -4 7 -1 17 7 23 11 9 35 -8 115 -85
55 -53 101 -102 101 -110 0 -23 -228 -244 -317 -307 -295 -210 -652 -317
-1008 -304 -580 21 -1076 310 -1357 790 -21 37 -46 83 -54 103 l-14 34 180 -1
c99 -1 183 1 187 4 11 11 13 10 102 -85z m-884 -104 c0 -39 5 -50 27 -67 14
-11 43 -20 64 -21 34 -1 40 3 54 32 l16 32 34 -29 c28 -24 33 -32 22 -42 -7
-7 -25 -14 -40 -14 -30 -1 -30 -4 -8 -55 13 -33 13 -37 -6 -60 -11 -14 -17
-19 -13 -12 3 6 1 12 -4 12 -6 0 -11 -7 -11 -15 0 -8 -9 -24 -20 -35 -12 -12
-25 -32 -30 -45 -9 -24 -10 -24 -57 -10 -26 9 -59 18 -71 21 -20 6 -23 11 -18
38 16 97 18 128 6 156 -7 17 -17 30 -22 30 -5 0 -7 -4 -4 -9 3 -5 -3 -38 -14
-73 -14 -44 -28 -70 -47 -84 -43 -31 -53 -36 -53 -25 0 5 10 13 22 17 28 9 9
19 -54 28 -26 4 -63 18 -83 32 -39 26 -69 32 -62 12 2 -7 11 -13 21 -13 9 0
25 -14 35 -31 10 -16 32 -42 49 -56 27 -22 29 -28 17 -38 -8 -7 -15 -20 -15
-30 0 -10 -18 -27 -45 -41 -25 -13 -45 -30 -45 -36 0 -17 20 -16 44 2 28 21
68 18 107 -8 30 -20 34 -29 37 -71 2 -26 -1 -46 -5 -43 -5 3 -29 1 -54 -4 -24
-6 -55 -13 -69 -15 -13 -3 -30 -10 -36 -15 -8 -7 -13 -6 -16 1 -5 17 -57 -6
-54 -24 1 -8 9 -23 17 -34 7 -10 -1 -2 -19 17 -62 66 -85 125 -90 227 -8 176
54 304 186 381 76 45 139 62 227 63 l80 0 0 -46z m4215 -9 c30 -15 50 -43 50
-67 0 -10 -2 -10 -9 1 -7 11 -10 9 -16 -8 -4 -13 -9 -20 -12 -17 -4 3 -12 1
-19 -4 -6 -6 -16 -10 -20 -8 -5 1 -18 -3 -30 -9 -16 -9 -29 -9 -60 2 -21 8
-47 14 -57 15 -26 0 -32 28 -12 50 24 27 95 60 128 60 15 0 41 -7 57 -15z
m-1339 -32 c13 -16 12 -17 -3 -4 -17 13 -22 21 -14 21 2 0 10 -8 17 -17z
m1515 -274 c9 -25 9 -36 0 -41 -7 -5 -19 10 -33 40 -28 60 -28 68 0 50 12 -8
27 -30 33 -49z m-436 -53 c0 -3 -4 -8 -10 -11 -5 -3 -10 -1 -10 4 0 6 5 11 10
11 6 0 10 -2 10 -4z m-3896 -30 c-3 -8 -14 -16 -25 -19 -11 -3 -18 -11 -17
-19 2 -7 -3 -12 -10 -10 -7 1 -15 -4 -18 -12 -3 -8 -12 -12 -20 -9 -9 3 -14 0
-12 -7 3 -11 -45 -47 -64 -49 -18 -2 -6 48 17 69 14 13 25 29 25 35 0 23 26
35 77 35 41 0 51 -3 47 -14z m629 -59 c-4 -6 -1 -7 6 -2 8 4 27 -6 49 -28 70
-66 289 -215 367 -249 26 -11 -7 -13 -239 -16 -173 -1 -273 1 -280 8 -7 7 -6
10 2 10 6 0 9 7 6 15 -3 8 0 17 8 20 8 3 13 18 13 33 -1 15 5 37 12 50 7 12
10 22 5 22 -14 0 -7 41 9 51 12 7 12 9 -1 9 -12 0 -12 2 -2 9 8 5 14 24 15 44
0 20 5 33 10 30 5 -3 1 7 -9 23 l-18 29 27 -24 c14 -13 24 -28 20 -34z m2612
-267 l29 -31 -24 5 c-14 2 -35 5 -48 5 -13 1 -20 5 -17 11 4 6 16 8 28 4 20
-6 20 -6 4 10 -19 19 -21 26 -9 26 5 0 21 -14 37 -30z"/>
<path d="M5160 8186 c0 -23 16 -27 17 -5 1 10 -2 19 -8 19 -5 0 -9 -6 -9 -14z"/>
<path d="M4970 8035 c14 -17 -13 -27 -29 -12 -7 7 -12 8 -11 2 7 -33 -1 -47
-22 -42 -15 4 -6 -10 33 -49 l54 -55 3 62 c2 34 0 69 -4 78 -4 9 -7 19 -6 22
0 3 -6 6 -13 6 -10 0 -12 -4 -5 -12z"/>
<path d="M4847 7873 c-4 -3 -7 -11 -7 -17 0 -6 5 -5 12 2 6 6 9 14 7 17 -3 3
-9 2 -12 -2z"/>
<path d="M6046 6857 c3 -10 9 -15 12 -12 3 3 0 11 -7 18 -10 9 -11 8 -5 -6z"/>
<path d="M5170 7101 c0 -7 -5 -9 -12 -5 -7 5 -8 3 -3 -5 5 -9 10 -10 18 -2 6
6 8 14 4 18 -4 3 -7 1 -7 -6z"/>
<path d="M4111 6506 c-10 -12 -8 -13 8 -9 12 3 18 9 15 14 -7 12 -10 11 -23
-5z"/>
<path d="M4990 5989 c-105 -32 -166 -124 -158 -238 8 -108 88 -190 192 -199
98 -8 169 29 216 111 65 113 24 248 -92 308 -47 24 -112 31 -158 18z m94 -113
c114 -48 96 -199 -27 -213 -43 -5 -49 -3 -82 30 -27 27 -35 43 -35 71 0 50 23
90 62 109 40 20 41 20 82 3z"/>
<path d="M2342 5555 l-3 -215 140 0 141 0 0 70 c0 53 -4 72 -15 76 -8 3 -20
24 -26 45 -14 46 -1 105 31 134 18 16 21 17 44 1 29 -18 50 -84 41 -125 -3
-16 -15 -38 -25 -49 -16 -17 -20 -36 -20 -87 l0 -65 155 0 155 0 0 68 c0 55
-4 72 -19 86 -25 23 -33 70 -21 117 11 41 43 71 67 62 43 -17 59 -142 23 -181
-16 -17 -20 -35 -20 -87 l0 -65 145 0 145 0 0 215 0 215 -467 0 -468 0 -3
-215z"/>
<path d="M4703 5535 c-46 -32 -37 -107 17 -138 56 -33 110 3 110 74 0 64 -74
101 -127 64z"/>
<path d="M4270 5527 c-215 -62 -339 -237 -328 -465 3 -76 9 -100 37 -156 55
-113 161 -201 277 -231 159 -41 329 6 434 122 104 114 138 253 98 411 -6 23
-13 42 -15 42 -2 0 -22 -14 -44 -32 -39 -32 -40 -33 -33 -84 7 -62 -15 -156
-50 -212 -31 -50 -89 -100 -145 -126 -65 -29 -188 -28 -253 1 -66 30 -133 96
-165 162 -23 47 -28 69 -28 136 0 71 4 88 33 147 56 114 163 183 282 182 36 0
76 -6 89 -13 22 -12 27 -10 69 33 l46 45 -49 22 c-60 27 -190 35 -255 16z"/>
<path d="M4538 5344 c-54 -55 -57 -56 -88 -45 -76 26 -178 3 -227 -50 -12 -13
-32 -46 -44 -73 -60 -137 42 -292 191 -290 58 1 116 24 157 64 54 50 78 148
53 214 -13 35 -8 43 66 106 57 48 63 56 48 65 -9 5 -32 22 -49 38 -18 15 -37
27 -41 27 -5 0 -35 -25 -66 -56z m-106 -171 c8 -10 20 -37 25 -60 9 -33 8 -43
-3 -47 -8 -3 -13 -11 -12 -18 2 -7 -3 -12 -11 -10 -8 2 -21 0 -30 -4 -18 -8
-35 -12 -71 -16 -21 -2 -25 1 -23 19 2 14 -2 22 -10 20 -6 -1 -11 6 -11 15 1
10 -2 15 -7 12 -14 -8 -11 24 6 56 19 38 41 49 91 50 27 0 46 -6 56 -17z"/>
<path d="M4343 5173 c9 -2 25 -2 35 0 9 3 1 5 -18 5 -19 0 -27 -2 -17 -5z"/>
<path d="M4401 5167 c-6 -8 -7 -18 -3 -23 4 -4 -1 -3 -10 5 -9 7 -27 11 -40 8
l-23 -4 22 -8 c13 -4 21 -11 18 -15 -6 -9 53 -22 66 -14 14 8 11 40 -5 53 -10
8 -16 8 -25 -2z"/>
<path d="M4338 5063 c12 -2 32 -2 45 0 12 2 2 4 -23 4 -25 0 -35 -2 -22 -4z"/>
<path d="M4310 5031 c0 -4 11 -6 25 -3 14 2 25 6 25 8 0 2 -11 4 -25 4 -14 0
-25 -4 -25 -9z"/>
<path d="M2342 5103 l3 -198 468 -3 467 -2 0 200 0 200 -145 0 -145 0 0 -53
c0 -41 5 -58 20 -72 28 -25 35 -75 16 -118 -12 -31 -20 -37 -44 -37 -41 0 -62
28 -62 83 0 34 6 53 20 67 15 15 20 33 20 75 l0 55 -155 0 -155 0 0 -53 c0
-41 5 -58 19 -71 56 -51 18 -182 -47 -162 -46 15 -59 108 -23 157 15 20 21 43
21 79 l0 50 -140 0 -140 0 2 -197z"/>
<path d="M3470 5208 c-98 -66 -54 -228 61 -228 80 0 129 49 129 130 0 32 -7
48 -33 76 -44 48 -105 57 -157 22z"/>
<path d="M5017 5162 c-15 -16 -17 -53 -17 -315 0 -273 -1 -297 -18 -309 -54
-39 -68 -115 -32 -173 56 -91 195 -59 216 49 8 46 0 78 -31 114 l-25 30 0 291
c0 278 -1 292 -20 311 -25 25 -52 26 -73 2z"/>
<path d="M3756 5144 c-25 -24 -31 -64 -15 -93 11 -20 24 -27 53 -29 49 -4 76
19 76 64 0 60 -74 98 -114 58z"/>
<path d="M2346 4763 c-3 -4 -6 -28 -6 -55 l0 -48 248 2 247 3 0 50 0 50 -241
2 c-133 1 -244 -1 -248 -4z"/>
<path d="M3010 4714 l0 -54 268 2 267 3 3 53 3 52 -270 -1 -271 -1 0 -54z"/>
<path d="M3720 4715 l0 -55 65 0 65 0 0 55 0 55 -65 0 -65 0 0 -55z"/>
<path d="M2340 4475 l0 -55 248 2 247 3 3 53 3 52 -250 0 -251 0 0 -55z"/>
<path d="M3010 4481 c0 -35 4 -51 16 -55 21 -8 404 -8 472 0 l52 7 0 48 0 49
-270 0 -270 0 0 -49z"/>
<path d="M3722 4478 l3 -53 60 0 60 0 3 53 3 52 -66 0 -66 0 3 -52z"/>
<path d="M4792 4087 c-27 -28 -28 -49 -4 -70 14 -13 56 -16 261 -18 l243 -3
19 23 c23 28 24 41 5 67 -13 18 -30 19 -258 22 l-244 3 -22 -24z"/>
<path d="M5614 3940 c-24 -10 -46 -62 -37 -88 25 -72 115 -85 148 -21 21 40
19 57 -14 90 -30 29 -58 35 -97 19z"/>
<path d="M5661 5289 c-124 -63 -155 -229 -63 -332 91 -100 233 -102 319 -4 87
99 64 249 -48 324 -58 38 -146 43 -208 12z m155 -107 c83 -67 41 -192 -64
-192 -57 0 -112 71 -98 126 4 15 21 40 38 56 35 33 91 38 124 10z"/>
<path d="M5901 3634 c0 -11 3 -14 6 -6 3 7 2 16 -1 19 -3 4 -6 -2 -5 -13z"/>
<path d="M2673 8640 c-12 -5 -27 -18 -33 -30 -14 -27 -4 -96 15 -104 8 -3 77
-130 154 -283 77 -153 190 -361 250 -463 61 -102 113 -189 115 -195 2 -5 6 -7
10 -3 14 12 -55 254 -116 413 -17 44 -81 181 -141 305 -60 124 -122 253 -137
287 -36 77 -63 95 -117 73z"/>
<path d="M6593 8522 c-127 -45 -196 -143 -195 -275 0 -123 71 -223 189 -267
160 -60 332 25 379 187 65 222 -156 432 -373 355z m164 -142 c17 -10 37 -29
44 -41 10 -20 9 -21 -7 -14 -39 16 -63 16 -108 1 -53 -18 -68 -20 -46 -6 8 5
10 10 4 10 -20 0 -63 -59 -77 -107 -13 -44 -15 -46 -25 -26 -29 54 -2 141 57
180 43 29 113 31 158 3z"/>
<path d="M5642 8384 c-15 -10 -22 -25 -22 -48 0 -57 12 -61 226 -64 l193 -4
26 26 c30 30 32 59 5 86 -19 19 -33 20 -213 20 -158 0 -197 -3 -215 -16z"/>
<path d="M7210 8317 c-60 -30 -41 -117 25 -117 39 0 55 20 55 68 0 45 -40 69
-80 49z"/>
<path d="M7461 8306 c-21 -25 -9 -77 22 -99 l27 -21 28 21 c32 24 41 73 17 97
-20 20 -78 21 -94 2z"/>
<path d="M7693 8061 c-46 -21 -88 -76 -104 -135 -30 -111 73 -246 188 -246
115 1 218 120 198 229 -10 53 -50 116 -90 141 -51 31 -138 37 -192 11z m136
-127 c12 -15 21 -37 21 -49 0 -31 -37 -75 -62 -75 -12 0 -18 3 -15 6 3 4 0 16
-8 28 -8 11 -15 28 -15 38 0 10 -7 18 -15 18 -22 0 -18 25 8 43 33 24 63 20
86 -9z"/>
<path d="M5911 7928 c-14 -23 -14 -23 8 -4 22 20 25 26 13 26 -4 0 -13 -10
-21 -22z"/>
<path d="M6328 7793 c-3 -35 -6 -38 -35 -41 -30 -3 -33 -6 -33 -38 0 -32 2
-34 35 -34 32 0 35 -2 35 -29 0 -21 6 -32 20 -36 27 -9 50 11 50 41 0 20 5 24
30 24 28 0 30 3 30 34 0 32 -3 35 -32 38 -30 3 -33 6 -33 38 -1 32 -4 35 -32
38 -30 3 -32 1 -35 -35z"/>
<path d="M5709 7723 c-13 -16 -12 -17 4 -4 9 7 17 15 17 17 0 8 -8 3 -21 -13z"/>
<path d="M4268 7703 c7 -3 16 -2 19 1 4 3 -2 6 -13 5 -11 0 -14 -3 -6 -6z"/>
<path d="M5669 7693 c-13 -16 -12 -17 4 -4 9 7 17 15 17 17 0 8 -8 3 -21 -13z"/>
<path d="M4385 7680 c3 -5 8 -10 11 -10 2 0 4 5 4 10 0 6 -5 10 -11 10 -5 0
-7 -4 -4 -10z"/>
<path d="M4455 7623 c26 -24 51 -43 55 -43 4 0 4 17 -1 38 -5 20 -9 39 -9 42
0 3 -21 5 -46 5 l-46 0 47 -42z"/>
<path d="M5559 7653 c-13 -16 -12 -17 4 -4 9 7 17 15 17 17 0 8 -8 3 -21 -13z"/>
<path d="M5610 7649 c-22 -18 -22 -19 -3 -10 12 6 25 16 28 21 9 15 3 12 -25
-11z"/>
<path d="M4141 7544 c0 -11 3 -14 6 -6 3 7 2 16 -1 19 -3 4 -6 -2 -5 -13z"/>
<path d="M7964 7520 c-110 -54 -203 -169 -248 -304 -24 -70 -102 -440 -122
-576 -14 -93 -18 -212 -21 -613 -5 -565 -12 -513 81 -566 164 -92 268 -229
331 -436 16 -50 37 -100 48 -112 26 -29 70 -30 97 -1 20 22 20 27 20 1313 0
1239 -1 1293 -18 1308 -30 27 -100 22 -168 -13z m51 -607 c-2 -263 -4 -581 -4
-708 -1 -183 -4 -227 -14 -214 -12 16 -51 23 -41 7 3 -5 10 -6 15 -3 5 4 6 -2
2 -11 -4 -11 -8 -13 -11 -6 -5 17 -32 15 -32 -2 0 -8 3 -16 8 -19 4 -2 2 -2
-5 -1 -9 2 -11 -37 -10 -154 l2 -157 -30 -3 c-23 -2 -41 6 -70 31 l-40 35 0
598 0 599 27 125 c39 186 60 235 129 303 32 31 63 57 68 57 6 0 8 -175 6 -477z
m-5 -993 c0 -23 -4 -39 -8 -36 -5 3 -7 21 -6 40 2 26 0 34 -11 30 -10 -4 -12
0 -8 15 9 34 33 -1 33 -49z"/>
<path d="M7932 6074 c-1 -13 0 -24 2 -24 7 0 14 40 7 44 -4 3 -8 -6 -9 -20z"/>
<path d="M7983 6045 c-3 -9 -3 -18 -1 -21 3 -3 8 4 11 16 6 23 -1 27 -10 5z"/>
<path d="M7931 6026 c-8 -10 -9 -16 -1 -21 5 -3 10 -1 10 4 0 6 7 11 16 11 8
0 12 5 9 10 -9 14 -20 12 -34 -4z"/>
<path d="M7274 6840 c-11 -4 -33 -23 -48 -41 -25 -29 -28 -39 -23 -83 6 -69
47 -106 115 -106 54 0 85 18 107 60 52 100 -48 212 -151 170z"/>
<path d="M2112 6624 c-12 -8 -22 -25 -22 -38 0 -26 28 -56 53 -56 21 0 57 35
57 55 0 18 -35 55 -53 55 -7 0 -23 -7 -35 -16z"/>
<path d="M7326 6124 c-19 -18 -21 -55 -4 -72 7 -7 24 -12 38 -12 34 0 50 17
50 52 0 43 -53 64 -84 32z"/>
<path d="M7170 5890 c0 -39 -1 -40 -35 -40 -34 0 -35 -1 -35 -40 0 -39 1 -40
35 -40 32 0 35 -2 35 -30 0 -28 3 -30 35 -30 32 0 35 2 35 30 0 27 3 30 30 30
28 0 30 2 30 38 0 37 -1 38 -30 34 -30 -4 -30 -4 -30 42 0 46 0 46 -35 46 -34
0 -35 -1 -35 -40z"/>
<path d="M8026 4718 c-14 -20 -16 -86 -16 -521 l0 -498 25 -24 c13 -14 33 -25
45 -25 12 0 32 11 45 25 l25 24 0 501 c0 487 -1 501 -20 520 -28 28 -84 27
-104 -2z"/>
<path d="M7625 3161 c-3 -5 -1 -12 5 -16 5 -3 10 1 10 9 0 18 -6 21 -15 7z"/>
<path d="M1785 2525 c-14 -13 -25 -31 -25 -40 0 -9 11 -27 25 -40 22 -23 32
-25 110 -25 94 0 125 16 125 65 0 49 -31 65 -125 65 -78 0 -88 -2 -110 -25z"/>
<path d="M8217 2522 c-21 -23 -22 -66 -1 -86 22 -22 70 -20 94 4 24 24 25 48
4 78 -19 28 -74 30 -97 4z"/>
<path d="M3510 1865 l0 -285 50 0 50 0 0 285 0 285 -50 0 -50 0 0 -285z"/>
<path d="M5856 2018 c-3 -73 -6 -202 -5 -285 l1 -153 49 0 49 0 0 285 0 285
-44 0 -43 0 -7 -132z"/>
<path d="M3087 2086 c-4 -10 -7 -128 -7 -262 l0 -244 55 0 55 0 0 75 0 75 75
0 c116 0 174 37 205 134 26 79 -10 170 -82 207 -32 16 -67 22 -168 26 -114 5
-127 4 -133 -11z m264 -115 c20 -20 29 -39 29 -61 0 -22 -9 -41 -29 -61 -27
-26 -36 -29 -95 -29 l-66 0 0 90 0 90 66 0 c59 0 68 -3 95 -29z"/>
<path d="M4718 2061 l-48 -15 0 -48 c0 -45 -2 -48 -25 -48 -22 0 -25 -4 -25
-40 0 -37 2 -40 28 -40 l28 0 -1 -104 c0 -90 3 -108 21 -133 29 -40 85 -66
127 -58 52 10 59 18 52 57 -6 32 -9 35 -47 36 -22 1 -44 4 -49 8 -5 3 -9 48
-9 100 l0 94 45 0 45 0 0 40 0 40 -45 0 -44 0 -3 63 -3 63 -47 -15z"/>
<path d="M6493 2063 c-43 -15 -43 -15 -43 -64 0 -46 -2 -49 -25 -49 -23 0 -25
-4 -25 -45 0 -41 2 -45 25 -45 25 0 25 -1 25 -90 0 -147 35 -196 134 -192 27
1 54 6 59 11 5 5 6 26 3 48 -7 38 -8 38 -46 35 -51 -5 -62 15 -58 116 l3 77
41 3 c38 3 42 6 48 34 10 52 9 53 -39 50 l-45 -4 0 66 c0 36 -3 65 -7 65 -5
-1 -27 -8 -50 -16z"/>
<path d="M3755 1946 c-118 -53 -142 -254 -40 -334 58 -46 150 -49 185 -6 18
21 32 17 25 -6 -6 -18 -2 -20 44 -20 l51 0 0 185 0 185 -45 0 c-34 0 -45 -4
-45 -16 0 -13 -5 -12 -34 5 -38 24 -96 27 -141 7z m130 -92 c30 -20 49 -75 40
-120 -6 -36 -51 -74 -87 -74 -31 0 -69 23 -84 51 -48 94 47 198 131 143z"/>
<path d="M4211 1934 c-41 -25 -43 -26 -36 -5 6 19 3 21 -44 21 l-51 0 0 -185
0 -185 45 0 45 0 0 108 c0 119 17 166 64 178 71 17 96 -30 96 -181 l0 -105 51
0 51 0 -4 138 c-4 154 -16 189 -71 222 -44 27 -93 25 -146 -6z"/>
<path d="M4983 1940 c-29 -13 -52 -34 -74 -67 -28 -43 -30 -54 -27 -114 6
-116 73 -182 183 -182 60 0 101 19 143 67 38 43 54 98 43 146 -31 138 -150
204 -268 150z m138 -101 c41 -44 41 -108 0 -150 -46 -46 -107 -33 -136 28 -50
104 61 202 136 122z"/>
<path d="M5444 1951 c-2 -2 -4 -118 -4 -258 l0 -253 51 0 51 0 -4 89 -4 90 41
-25 c66 -38 132 -27 187 32 36 39 49 78 49 142 0 150 -135 242 -245 167 l-36
-24 0 22 c0 19 -5 22 -41 22 -22 0 -43 -2 -45 -4z m227 -91 c27 -15 49 -62 49
-105 0 -27 -8 -44 -29 -66 -63 -63 -151 -19 -151 76 0 79 68 128 131 95z"/>
<path d="M6104 1946 c-40 -18 -90 -79 -102 -126 -20 -80 17 -183 81 -225 43
-28 98 -28 150 -2 43 22 47 23 42 6 -6 -17 -1 -19 45 -19 43 0 51 3 46 16 -3
9 -6 92 -6 185 l0 169 -45 0 c-33 0 -45 -4 -45 -15 0 -12 -6 -11 -32 5 -38 23
-89 25 -134 6z m132 -112 c27 -28 34 -44 34 -75 0 -77 -82 -125 -136 -81 -46
37 -55 82 -27 139 29 62 81 69 129 17z"/>
<path d="M6765 1946 c-148 -66 -145 -279 5 -356 42 -22 129 -16 181 12 l46 25
-26 32 -26 32 -34 -17 c-42 -21 -105 -14 -137 17 -13 12 -24 26 -24 30 0 5 57
10 128 11 l127 3 3 30 c15 127 -127 233 -243 181z m133 -102 c12 -14 22 -29
22 -35 0 -5 -38 -9 -85 -9 -47 0 -85 3 -85 8 0 4 7 18 16 30 33 48 92 50 132
6z"/>
</g>
</svg>
